<svg xmlns="http://www.w3.org/2000/svg" aria-label="Vite logo" viewBox="0 0 410 404"><path fill="#41D1FF" d="M399.641 59.524L215.643 388.545c-3.662 6.546-13.106 6.586-16.826.072L10.145 59.611c-4.01-6.996 1.956-15.662 9.815-14.259l184.852 33.026a9.072 9.072 0 003.182-.005l181.746-32.95c7.84-1.42 13.827 7.184 9.901 14.101z"/><path fill="#BD34FE" d="M292.965.796L156.193 27.81a4.536 4.536 0 00-3.626 5.43l8.318 45.607a4.536 4.536 0 005.36 3.646l38.067-7.086a4.536 4.536 0 015.275 3.982l23.168 157.226a4.536 4.536 0 008.35 1.957l25.468-50.078a4.536 4.536 0 00.52-2.708l-16.645-114.66a4.536 4.536 0 015.31-5.1l43.228 8.017a4.536 4.536 0 005.177-3.692l7.961-43.829a4.536 4.536 0 00-3.629-5.228L302.393.887a4.536 4.536 0 00-1.428-.09z"/></svg>
