<svg xmlns="http://www.w3.org/2000/svg" xmlns:xlink="http://www.w3.org/1999/xlink" viewBox="0 0 841.9 595.3"><g fill="none" stroke="#61DAFB" stroke-width="28"><ellipse cx="420.9" cy="296.5" rx="45.7" ry="45.7"/><path d="M520.5 78.1c-37.9-21.9-104.6-8.1-173 34.4C282.4 153 230.4 210.9 206.2 267.5c-24.8 58-20.4 108.8 17.5 130.7 37.9 21.9 104.6 8.1 173-34.4 65.1-40.5 117.1-98.4 141.3-155 24.8-58 20.4-108.8-17.5-130.7z"/><path d="M520.5 516.9c37.9-21.9 59.4-85.2 57.2-165.5-2.1-76.5-25.3-150.7-62.3-199.5-37.9-50-86.6-69.6-124.5-47.7-37.9 21.9-59.4 85.2-57.2 165.5 2.1 76.5 25.3 150.7 62.3 199.5 37.9 50 86.6 69.6 124.5 47.7z"/><path d="M303.3 516.9c37.9 21.9 104.6 8.1 173-34.4 65.1-40.5 117.1-98.4 141.3-155 24.8-58 20.4-108.8-17.5-130.7-37.9-21.9-104.6-8.1-173 34.4-65.1 40.5-117.1 98.4-141.3 155-24.8 58-20.4 108.8 17.5 130.7z"/></g></svg>
